<svg width="48" height="35" viewBox="0 0 48 35" fill="none" xmlns="http://www.w3.org/2000/svg">
<path d="M13.6078 14.8279C14.5786 12.9305 16.1912 11.4392 18.1585 10.6194L28.9026 6.14274C30.3155 5.55403 31.4319 4.4213 32 3L35.1923 12.577C35.7198 14.1595 35.7851 15.8595 35.3806 17.4778C34.8325 19.6703 35.4483 21.9906 37.0113 23.6229L45.7788 32.7784L24.1136 21.9499C22.8642 21.3255 21.4866 21.0004 20.0899 21.0004L18.2875 21.0004C16.9285 21.0004 15.5872 21.3082 14.3641 21.9006L2 27.8894L8.66398 22.6663C9.69066 21.8616 10.5301 20.8434 11.1243 19.6821L13.6078 14.8279Z" fill="#76052E"/>
<rect x="30" y="1.88562" width="2.66673" height="2.66673" rx="1.33336" transform="rotate(-45 30 1.88562)" fill="#76052E"/>
<rect x="2.66797" y="29.6667" width="2.66673" height="2.66673" rx="1.33336" transform="rotate(180 2.66797 29.6667)" fill="#76052E"/>
<rect x="47.668" y="34.6667" width="2.66673" height="2.66673" rx="1.33336" transform="rotate(180 47.668 34.6667)" fill="#76052E"/>
</svg>
